<svg width="40" height="40" viewBox="0 0 40 40" fill="none" xmlns="http://www.w3.org/2000/svg">
<path d="M13.9344 1.31562C9.93777 2.70208 6.49109 5.33364 4.10061 8.82375C1.71013 12.3139 0.501861 16.4786 0.653271 20.7061C0.80468 24.9337 2.30779 29.0013 4.94182 32.3115C7.57584 35.6216 11.2019 37.9999 15.2875 39.0969C18.5998 39.9515 22.07 39.9891 25.4 39.2062C28.4166 38.5286 31.2056 37.0793 33.4938 35C35.8753 32.7698 37.6039 29.9327 38.4938 26.7937C39.461 23.3802 39.6331 19.7904 38.9969 16.3H20.3969V24.0156H31.1688C30.9535 25.2462 30.4921 26.4207 29.8124 27.4688C29.1326 28.517 28.2483 29.4172 27.2125 30.1156C25.8971 30.9857 24.4144 31.5712 22.8594 31.8344C21.2998 32.1244 19.7002 32.1244 18.1406 31.8344C16.56 31.5076 15.0647 30.8552 13.75 29.9187C11.638 28.4237 10.0521 26.2998 9.21876 23.85C8.37131 21.3544 8.37131 18.6488 9.21876 16.1531C9.81197 14.4038 10.7926 12.811 12.0875 11.4937C13.5694 9.95858 15.4454 8.86123 17.5099 8.32211C19.5743 7.78298 21.7474 7.8229 23.7906 8.43749C25.3868 8.92747 26.8464 9.78355 28.0531 10.9375C29.2677 9.72916 30.4802 8.5177 31.6906 7.30312C32.3156 6.64999 32.9969 6.02812 33.6125 5.35937C31.7705 3.64523 29.6084 2.31142 27.25 1.43437C22.9553 -0.125038 18.2562 -0.166945 13.9344 1.31562Z" fill="white"/>
<path d="M13.9344 1.31561C18.2558 -0.16796 22.955 -0.127156 27.25 1.43124C29.6088 2.31425 31.7699 3.65448 33.6094 5.37499C32.9844 6.04374 32.325 6.66874 31.6875 7.31874C30.475 8.52915 29.2635 9.7354 28.0531 10.9375C26.8464 9.78354 25.3868 8.92746 23.7906 8.43749C21.748 7.82074 19.575 7.77851 17.51 8.31543C15.4451 8.85235 13.5678 9.94768 12.0844 11.4812C10.7895 12.7985 9.80882 14.3913 9.21561 16.1406L2.73749 11.125C5.05626 6.52674 9.07108 3.00944 13.9344 1.31561Z" fill="#E33629"/>
<path d="M1.01875 16.0938C1.36694 14.3681 1.94501 12.697 2.7375 11.125L9.21562 16.1531C8.36817 18.6488 8.36817 21.3544 9.21562 23.85C7.05729 25.5167 4.89791 27.1917 2.7375 28.875C0.753593 24.926 0.148537 20.4266 1.01875 16.0938Z" fill="#F8BD00"/>
<path d="M20.3969 16.2969H38.9969C39.6331 19.7873 39.461 23.3771 38.4938 26.7906C37.6039 29.9296 35.8753 32.7667 33.4938 34.9969C31.4031 33.3656 29.3031 31.7469 27.2125 30.1156C28.249 29.4165 29.1337 28.5153 29.8135 27.466C30.4933 26.4168 30.9543 25.2411 31.1688 24.0094H20.3969C20.3938 21.4406 20.3969 18.8687 20.3969 16.2969Z" fill="#587DBD"/>
<path d="M2.73438 28.875C4.89479 27.2083 7.05417 25.5333 9.2125 23.85C10.0475 26.3006 11.6356 28.4247 13.75 29.9188C15.0688 30.8508 16.5673 31.4979 18.15 31.8188C19.7096 32.1087 21.3092 32.1087 22.8688 31.8188C24.4237 31.5555 25.9065 30.9701 27.2219 30.1C29.3125 31.7313 31.4125 33.35 33.5031 34.9813C31.2153 37.0617 28.4263 38.5121 25.4094 39.1906C22.0794 39.9735 18.6091 39.9359 15.2969 39.0813C12.6772 38.3818 10.2302 37.1487 8.10938 35.4594C5.86457 33.6772 4.03111 31.4312 2.73438 28.875Z" fill="#319F43"/>
</svg>
