<svg width="40" height="40" viewBox="0 0 40 40" fill="none" xmlns="http://www.w3.org/2000/svg">
<path d="M25 25L27.5 27.5M28.2216 31.7083C27.9807 31.4821 27.7877 31.2098 27.6541 30.9076C27.5205 30.6054 27.4489 30.2794 27.4437 29.9489C27.4385 29.6185 27.4998 29.2904 27.6238 28.9841C27.7479 28.6778 27.9322 28.3996 28.1659 28.1659C28.3996 27.9323 28.6778 27.7479 28.9841 27.6239C29.2904 27.4998 29.6185 27.4386 29.9489 27.4438C30.2793 27.449 30.6053 27.5205 30.9076 27.6541C31.2098 27.7878 31.4821 27.9808 31.7083 28.2217L35.1116 31.625C35.3525 31.8512 35.5455 32.1235 35.6792 32.4257C35.8128 32.728 35.8843 33.054 35.8895 33.3844C35.8947 33.7148 35.8335 34.0429 35.7094 34.3492C35.5854 34.6555 35.401 34.9337 35.1674 35.1674C34.9337 35.4011 34.6555 35.5854 34.3492 35.7095C34.0429 35.8335 33.7148 35.8948 33.3844 35.8896C33.0539 35.8844 32.7279 35.8128 32.4257 35.6792C32.1235 35.5456 31.8512 35.3526 31.625 35.1117L28.2216 31.7083ZM27.5 15.8333C27.5 12.7391 26.2708 9.77168 24.0829 7.58375C21.8949 5.39583 18.9275 4.16667 15.8333 4.16667C12.7391 4.16667 9.77164 5.39583 7.58371 7.58375C5.39579 9.77168 4.16663 12.7391 4.16663 15.8333C4.16663 18.9275 5.39579 21.895 7.58371 24.0829C9.77164 26.2708 12.7391 27.5 15.8333 27.5C18.9275 27.5 21.8949 26.2708 24.0829 24.0829C26.2708 21.895 27.5 18.9275 27.5 15.8333Z" stroke="black" stroke-width="2" stroke-linecap="round" stroke-linejoin="round"/>
</svg>
